# Blender v2.74 (sub 0) OBJ File: ''
# www.blender.org
o Arrow
v -0.250000 -0.250000 0.500000
v -0.250000 -0.250000 -1.000000
v 0.250000 -0.250000 -1.000000
v 0.250000 -0.250000 0.500000
v -0.250000 0.250000 0.500000
v -0.250000 0.250000 -1.000000
v 0.250000 0.250000 -1.000000
v 0.250000 0.250000 0.500000
v -0.500000 0.500000 0.500000
v 0.000000 0.000000 1.500000
v 0.500000 -0.500000 0.500000
v 0.500000 0.500000 0.500000
v -0.500000 -0.500000 0.500000
vn 0.000000 -1.000000 0.000000
vn 0.000000 1.000000 0.000000
vn -1.000000 -0.000000 -0.000000
vn 0.000000 -0.000000 -1.000000
vn 1.000000 -0.000000 0.000000
vn 0.894400 0.000000 0.447200
vn -0.000000 -0.894400 0.447200
vn -0.000000 0.894400 0.447200
vn -0.894400 -0.000000 0.447200
f 1//1 2//1 3//1 4//1
f 5//2 8//2 7//2 6//2
f 1//3 5//3 6//3 2//3
f 2//4 6//4 7//4 3//4
f 3//5 7//5 8//5 4//5
f 11//6 12//6 10//6
f 5//4 1//4 13//4 9//4
f 13//7 11//7 10//7
f 8//4 5//4 9//4 12//4
f 12//8 9//8 10//8
f 1//4 4//4 11//4 13//4
f 9//9 13//9 10//9
f 4//4 8//4 12//4 11//4
